<mxfile host="app.diagrams.net" modified="2021-02-05T09:49:00.944Z" agent="5.0 (X11; Linux x86_64) AppleWebKit/537.36 (KHTML, like Gecko) Chrome/87.0.4280.141 Safari/537.36" etag="2K-EF2bXacYuWWXIAeL-" version="14.2.9" type="github">
  <diagram id="R2lEEEUBdFMjLlhIrx00" name="Page-1">
    <mxGraphModel dx="1355" dy="745" grid="1" gridSize="10" guides="1" tooltips="1" connect="1" arrows="1" fold="1" page="1" pageScale="1" pageWidth="850" pageHeight="1100" background="#DAD2D8" math="0" shadow="0" extFonts="Permanent Marker^https://fonts.googleapis.com/css?family=Permanent+Marker">
      <root>
        <mxCell id="0" />
        <mxCell id="1" parent="0" />
        <mxCell id="C-vyLk0tnHw3VtMMgP7b-1" value="" style="edgeStyle=entityRelationEdgeStyle;endArrow=ERzeroToMany;startArrow=ERone;endFill=1;startFill=0;strokeColor=#A8201A;fontColor=#143642;labelBackgroundColor=#DAD2D8;" parent="1" source="C-vyLk0tnHw3VtMMgP7b-24" target="C-vyLk0tnHw3VtMMgP7b-6" edge="1">
          <mxGeometry width="100" height="100" relative="1" as="geometry">
            <mxPoint x="340" y="720" as="sourcePoint" />
            <mxPoint x="440" y="620" as="targetPoint" />
          </mxGeometry>
        </mxCell>
        <mxCell id="C-vyLk0tnHw3VtMMgP7b-12" value="" style="edgeStyle=entityRelationEdgeStyle;endArrow=ERzeroToMany;startArrow=ERone;endFill=1;startFill=0;strokeColor=#A8201A;fontColor=#143642;labelBackgroundColor=#DAD2D8;" parent="1" source="C-vyLk0tnHw3VtMMgP7b-3" target="C-vyLk0tnHw3VtMMgP7b-17" edge="1">
          <mxGeometry width="100" height="100" relative="1" as="geometry">
            <mxPoint x="400" y="180" as="sourcePoint" />
            <mxPoint x="460" y="205" as="targetPoint" />
          </mxGeometry>
        </mxCell>
        <mxCell id="C-vyLk0tnHw3VtMMgP7b-2" value="Orders" style="shape=table;startSize=30;container=1;collapsible=1;childLayout=tableLayout;fixedRows=1;rowLines=0;fontStyle=1;align=center;resizeLast=1;fillColor=#FAE5C7;strokeColor=#0F8B8D;fontColor=#143642;" parent="1" vertex="1">
          <mxGeometry x="450" y="120" width="250" height="130" as="geometry" />
        </mxCell>
        <mxCell id="C-vyLk0tnHw3VtMMgP7b-3" value="" style="shape=partialRectangle;collapsible=0;dropTarget=0;pointerEvents=0;fillColor=none;points=[[0,0.5],[1,0.5]];portConstraint=eastwest;top=0;left=0;right=0;bottom=1;strokeColor=#0F8B8D;fontColor=#143642;" parent="C-vyLk0tnHw3VtMMgP7b-2" vertex="1">
          <mxGeometry y="30" width="250" height="30" as="geometry" />
        </mxCell>
        <mxCell id="C-vyLk0tnHw3VtMMgP7b-4" value="PK" style="shape=partialRectangle;overflow=hidden;connectable=0;fillColor=none;top=0;left=0;bottom=0;right=0;fontStyle=1;strokeColor=#0F8B8D;fontColor=#143642;" parent="C-vyLk0tnHw3VtMMgP7b-3" vertex="1">
          <mxGeometry width="30" height="30" as="geometry" />
        </mxCell>
        <mxCell id="C-vyLk0tnHw3VtMMgP7b-5" value="order_id int NOT NULL " style="shape=partialRectangle;overflow=hidden;connectable=0;fillColor=none;top=0;left=0;bottom=0;right=0;align=left;spacingLeft=6;fontStyle=5;strokeColor=#0F8B8D;fontColor=#143642;" parent="C-vyLk0tnHw3VtMMgP7b-3" vertex="1">
          <mxGeometry x="30" width="220" height="30" as="geometry" />
        </mxCell>
        <mxCell id="C-vyLk0tnHw3VtMMgP7b-6" value="" style="shape=partialRectangle;collapsible=0;dropTarget=0;pointerEvents=0;fillColor=none;points=[[0,0.5],[1,0.5]];portConstraint=eastwest;top=0;left=0;right=0;bottom=0;strokeColor=#0F8B8D;fontColor=#143642;" parent="C-vyLk0tnHw3VtMMgP7b-2" vertex="1">
          <mxGeometry y="60" width="250" height="30" as="geometry" />
        </mxCell>
        <mxCell id="C-vyLk0tnHw3VtMMgP7b-7" value="FK1" style="shape=partialRectangle;overflow=hidden;connectable=0;fillColor=none;top=0;left=0;bottom=0;right=0;strokeColor=#0F8B8D;fontColor=#143642;" parent="C-vyLk0tnHw3VtMMgP7b-6" vertex="1">
          <mxGeometry width="30" height="30" as="geometry" />
        </mxCell>
        <mxCell id="C-vyLk0tnHw3VtMMgP7b-8" value="customer_id int NOT NULL" style="shape=partialRectangle;overflow=hidden;connectable=0;fillColor=none;top=0;left=0;bottom=0;right=0;align=left;spacingLeft=6;strokeColor=#0F8B8D;fontColor=#143642;" parent="C-vyLk0tnHw3VtMMgP7b-6" vertex="1">
          <mxGeometry x="30" width="220" height="30" as="geometry" />
        </mxCell>
        <mxCell id="C-vyLk0tnHw3VtMMgP7b-9" value="" style="shape=partialRectangle;collapsible=0;dropTarget=0;pointerEvents=0;fillColor=none;points=[[0,0.5],[1,0.5]];portConstraint=eastwest;top=0;left=0;right=0;bottom=0;strokeColor=#0F8B8D;fontColor=#143642;" parent="C-vyLk0tnHw3VtMMgP7b-2" vertex="1">
          <mxGeometry y="90" width="250" height="30" as="geometry" />
        </mxCell>
        <mxCell id="C-vyLk0tnHw3VtMMgP7b-10" value="" style="shape=partialRectangle;overflow=hidden;connectable=0;fillColor=none;top=0;left=0;bottom=0;right=0;strokeColor=#0F8B8D;fontColor=#143642;" parent="C-vyLk0tnHw3VtMMgP7b-9" vertex="1">
          <mxGeometry width="30" height="30" as="geometry" />
        </mxCell>
        <mxCell id="C-vyLk0tnHw3VtMMgP7b-11" value="order_date date NOT NULL" style="shape=partialRectangle;overflow=hidden;connectable=0;fillColor=none;top=0;left=0;bottom=0;right=0;align=left;spacingLeft=6;strokeColor=#0F8B8D;fontColor=#143642;" parent="C-vyLk0tnHw3VtMMgP7b-9" vertex="1">
          <mxGeometry x="30" width="220" height="30" as="geometry" />
        </mxCell>
        <mxCell id="C-vyLk0tnHw3VtMMgP7b-13" value="Shipments" style="shape=table;startSize=30;container=1;collapsible=1;childLayout=tableLayout;fixedRows=1;rowLines=0;fontStyle=1;align=center;resizeLast=1;fillColor=#FAE5C7;strokeColor=#0F8B8D;fontColor=#143642;" parent="1" vertex="1">
          <mxGeometry x="450" y="280" width="250" height="130" as="geometry" />
        </mxCell>
        <mxCell id="C-vyLk0tnHw3VtMMgP7b-14" value="" style="shape=partialRectangle;collapsible=0;dropTarget=0;pointerEvents=0;fillColor=none;points=[[0,0.5],[1,0.5]];portConstraint=eastwest;top=0;left=0;right=0;bottom=1;strokeColor=#0F8B8D;fontColor=#143642;" parent="C-vyLk0tnHw3VtMMgP7b-13" vertex="1">
          <mxGeometry y="30" width="250" height="30" as="geometry" />
        </mxCell>
        <mxCell id="C-vyLk0tnHw3VtMMgP7b-15" value="PK" style="shape=partialRectangle;overflow=hidden;connectable=0;fillColor=none;top=0;left=0;bottom=0;right=0;fontStyle=1;strokeColor=#0F8B8D;fontColor=#143642;" parent="C-vyLk0tnHw3VtMMgP7b-14" vertex="1">
          <mxGeometry width="30" height="30" as="geometry" />
        </mxCell>
        <mxCell id="C-vyLk0tnHw3VtMMgP7b-16" value="shipment_id int NOT NULL " style="shape=partialRectangle;overflow=hidden;connectable=0;fillColor=none;top=0;left=0;bottom=0;right=0;align=left;spacingLeft=6;fontStyle=5;strokeColor=#0F8B8D;fontColor=#143642;" parent="C-vyLk0tnHw3VtMMgP7b-14" vertex="1">
          <mxGeometry x="30" width="220" height="30" as="geometry" />
        </mxCell>
        <mxCell id="C-vyLk0tnHw3VtMMgP7b-17" value="" style="shape=partialRectangle;collapsible=0;dropTarget=0;pointerEvents=0;fillColor=none;points=[[0,0.5],[1,0.5]];portConstraint=eastwest;top=0;left=0;right=0;bottom=0;strokeColor=#0F8B8D;fontColor=#143642;" parent="C-vyLk0tnHw3VtMMgP7b-13" vertex="1">
          <mxGeometry y="60" width="250" height="30" as="geometry" />
        </mxCell>
        <mxCell id="C-vyLk0tnHw3VtMMgP7b-18" value="FK1" style="shape=partialRectangle;overflow=hidden;connectable=0;fillColor=none;top=0;left=0;bottom=0;right=0;strokeColor=#0F8B8D;fontColor=#143642;" parent="C-vyLk0tnHw3VtMMgP7b-17" vertex="1">
          <mxGeometry width="30" height="30" as="geometry" />
        </mxCell>
        <mxCell id="C-vyLk0tnHw3VtMMgP7b-19" value="order_id int NOT NULL" style="shape=partialRectangle;overflow=hidden;connectable=0;fillColor=none;top=0;left=0;bottom=0;right=0;align=left;spacingLeft=6;strokeColor=#0F8B8D;fontColor=#143642;" parent="C-vyLk0tnHw3VtMMgP7b-17" vertex="1">
          <mxGeometry x="30" width="220" height="30" as="geometry" />
        </mxCell>
        <mxCell id="C-vyLk0tnHw3VtMMgP7b-20" value="" style="shape=partialRectangle;collapsible=0;dropTarget=0;pointerEvents=0;fillColor=none;points=[[0,0.5],[1,0.5]];portConstraint=eastwest;top=0;left=0;right=0;bottom=0;strokeColor=#0F8B8D;fontColor=#143642;" parent="C-vyLk0tnHw3VtMMgP7b-13" vertex="1">
          <mxGeometry y="90" width="250" height="30" as="geometry" />
        </mxCell>
        <mxCell id="C-vyLk0tnHw3VtMMgP7b-21" value="" style="shape=partialRectangle;overflow=hidden;connectable=0;fillColor=none;top=0;left=0;bottom=0;right=0;strokeColor=#0F8B8D;fontColor=#143642;" parent="C-vyLk0tnHw3VtMMgP7b-20" vertex="1">
          <mxGeometry width="30" height="30" as="geometry" />
        </mxCell>
        <mxCell id="C-vyLk0tnHw3VtMMgP7b-22" value="shipment_date date NOT NULL" style="shape=partialRectangle;overflow=hidden;connectable=0;fillColor=none;top=0;left=0;bottom=0;right=0;align=left;spacingLeft=6;strokeColor=#0F8B8D;fontColor=#143642;" parent="C-vyLk0tnHw3VtMMgP7b-20" vertex="1">
          <mxGeometry x="30" width="220" height="30" as="geometry" />
        </mxCell>
        <mxCell id="C-vyLk0tnHw3VtMMgP7b-23" value="Customers" style="shape=table;startSize=30;container=1;collapsible=1;childLayout=tableLayout;fixedRows=1;rowLines=0;fontStyle=1;align=center;resizeLast=1;fillColor=#FAE5C7;strokeColor=#0F8B8D;fontColor=#143642;" parent="1" vertex="1">
          <mxGeometry x="120" y="120" width="250" height="100" as="geometry" />
        </mxCell>
        <mxCell id="C-vyLk0tnHw3VtMMgP7b-24" value="" style="shape=partialRectangle;collapsible=0;dropTarget=0;pointerEvents=0;fillColor=none;points=[[0,0.5],[1,0.5]];portConstraint=eastwest;top=0;left=0;right=0;bottom=1;strokeColor=#0F8B8D;fontColor=#143642;" parent="C-vyLk0tnHw3VtMMgP7b-23" vertex="1">
          <mxGeometry y="30" width="250" height="30" as="geometry" />
        </mxCell>
        <mxCell id="C-vyLk0tnHw3VtMMgP7b-25" value="PK" style="shape=partialRectangle;overflow=hidden;connectable=0;fillColor=none;top=0;left=0;bottom=0;right=0;fontStyle=1;strokeColor=#0F8B8D;fontColor=#143642;" parent="C-vyLk0tnHw3VtMMgP7b-24" vertex="1">
          <mxGeometry width="30" height="30" as="geometry" />
        </mxCell>
        <mxCell id="C-vyLk0tnHw3VtMMgP7b-26" value="customer_id int NOT NULL " style="shape=partialRectangle;overflow=hidden;connectable=0;fillColor=none;top=0;left=0;bottom=0;right=0;align=left;spacingLeft=6;fontStyle=5;strokeColor=#0F8B8D;fontColor=#143642;" parent="C-vyLk0tnHw3VtMMgP7b-24" vertex="1">
          <mxGeometry x="30" width="220" height="30" as="geometry" />
        </mxCell>
        <mxCell id="C-vyLk0tnHw3VtMMgP7b-27" value="" style="shape=partialRectangle;collapsible=0;dropTarget=0;pointerEvents=0;fillColor=none;points=[[0,0.5],[1,0.5]];portConstraint=eastwest;top=0;left=0;right=0;bottom=0;strokeColor=#0F8B8D;fontColor=#143642;" parent="C-vyLk0tnHw3VtMMgP7b-23" vertex="1">
          <mxGeometry y="60" width="250" height="30" as="geometry" />
        </mxCell>
        <mxCell id="C-vyLk0tnHw3VtMMgP7b-28" value="" style="shape=partialRectangle;overflow=hidden;connectable=0;fillColor=none;top=0;left=0;bottom=0;right=0;strokeColor=#0F8B8D;fontColor=#143642;" parent="C-vyLk0tnHw3VtMMgP7b-27" vertex="1">
          <mxGeometry width="30" height="30" as="geometry" />
        </mxCell>
        <mxCell id="C-vyLk0tnHw3VtMMgP7b-29" value="customer_name char(50) NOT NULL" style="shape=partialRectangle;overflow=hidden;connectable=0;fillColor=none;top=0;left=0;bottom=0;right=0;align=left;spacingLeft=6;strokeColor=#0F8B8D;fontColor=#143642;" parent="C-vyLk0tnHw3VtMMgP7b-27" vertex="1">
          <mxGeometry x="30" width="220" height="30" as="geometry" />
        </mxCell>
        <mxCell id="H-Zj2OChRAa0Gneqg0xZ-1" value="Product" style="shape=table;startSize=30;container=1;collapsible=1;childLayout=tableLayout;fixedRows=1;rowLines=0;fontStyle=1;align=center;resizeLast=1;fillColor=#FAE5C7;strokeColor=#0F8B8D;fontColor=#143642;" vertex="1" parent="1">
          <mxGeometry x="80" y="600" width="180" height="190" as="geometry" />
        </mxCell>
        <mxCell id="H-Zj2OChRAa0Gneqg0xZ-2" value="" style="shape=partialRectangle;collapsible=0;dropTarget=0;pointerEvents=0;fillColor=none;top=0;left=0;bottom=1;right=0;points=[[0,0.5],[1,0.5]];portConstraint=eastwest;strokeColor=#0F8B8D;fontColor=#143642;" vertex="1" parent="H-Zj2OChRAa0Gneqg0xZ-1">
          <mxGeometry y="30" width="180" height="30" as="geometry" />
        </mxCell>
        <mxCell id="H-Zj2OChRAa0Gneqg0xZ-3" value="PK" style="shape=partialRectangle;connectable=0;fillColor=none;top=0;left=0;bottom=0;right=0;fontStyle=1;overflow=hidden;strokeColor=#0F8B8D;fontColor=#143642;" vertex="1" parent="H-Zj2OChRAa0Gneqg0xZ-2">
          <mxGeometry width="30" height="30" as="geometry" />
        </mxCell>
        <mxCell id="H-Zj2OChRAa0Gneqg0xZ-4" value="product_id" style="shape=partialRectangle;connectable=0;fillColor=none;top=0;left=0;bottom=0;right=0;align=left;spacingLeft=6;fontStyle=5;overflow=hidden;strokeColor=#0F8B8D;fontColor=#143642;" vertex="1" parent="H-Zj2OChRAa0Gneqg0xZ-2">
          <mxGeometry x="30" width="150" height="30" as="geometry" />
        </mxCell>
        <mxCell id="H-Zj2OChRAa0Gneqg0xZ-5" value="" style="shape=partialRectangle;collapsible=0;dropTarget=0;pointerEvents=0;fillColor=none;top=0;left=0;bottom=0;right=0;points=[[0,0.5],[1,0.5]];portConstraint=eastwest;strokeColor=#0F8B8D;fontColor=#143642;" vertex="1" parent="H-Zj2OChRAa0Gneqg0xZ-1">
          <mxGeometry y="60" width="180" height="30" as="geometry" />
        </mxCell>
        <mxCell id="H-Zj2OChRAa0Gneqg0xZ-6" value="" style="shape=partialRectangle;connectable=0;fillColor=none;top=0;left=0;bottom=0;right=0;editable=1;overflow=hidden;strokeColor=#0F8B8D;fontColor=#143642;" vertex="1" parent="H-Zj2OChRAa0Gneqg0xZ-5">
          <mxGeometry width="30" height="30" as="geometry" />
        </mxCell>
        <mxCell id="H-Zj2OChRAa0Gneqg0xZ-7" value="product_title" style="shape=partialRectangle;connectable=0;fillColor=none;top=0;left=0;bottom=0;right=0;align=left;spacingLeft=6;overflow=hidden;strokeColor=#0F8B8D;fontColor=#143642;" vertex="1" parent="H-Zj2OChRAa0Gneqg0xZ-5">
          <mxGeometry x="30" width="150" height="30" as="geometry" />
        </mxCell>
        <mxCell id="H-Zj2OChRAa0Gneqg0xZ-8" value="" style="shape=partialRectangle;collapsible=0;dropTarget=0;pointerEvents=0;fillColor=none;top=0;left=0;bottom=0;right=0;points=[[0,0.5],[1,0.5]];portConstraint=eastwest;strokeColor=#0F8B8D;fontColor=#143642;" vertex="1" parent="H-Zj2OChRAa0Gneqg0xZ-1">
          <mxGeometry y="90" width="180" height="30" as="geometry" />
        </mxCell>
        <mxCell id="H-Zj2OChRAa0Gneqg0xZ-9" value="" style="shape=partialRectangle;connectable=0;fillColor=none;top=0;left=0;bottom=0;right=0;editable=1;overflow=hidden;strokeColor=#0F8B8D;fontColor=#143642;" vertex="1" parent="H-Zj2OChRAa0Gneqg0xZ-8">
          <mxGeometry width="30" height="30" as="geometry" />
        </mxCell>
        <mxCell id="H-Zj2OChRAa0Gneqg0xZ-10" value="product_description" style="shape=partialRectangle;connectable=0;fillColor=none;top=0;left=0;bottom=0;right=0;align=left;spacingLeft=6;overflow=hidden;strokeColor=#0F8B8D;fontColor=#143642;" vertex="1" parent="H-Zj2OChRAa0Gneqg0xZ-8">
          <mxGeometry x="30" width="150" height="30" as="geometry" />
        </mxCell>
        <mxCell id="H-Zj2OChRAa0Gneqg0xZ-11" value="" style="shape=partialRectangle;collapsible=0;dropTarget=0;pointerEvents=0;fillColor=none;top=0;left=0;bottom=0;right=0;points=[[0,0.5],[1,0.5]];portConstraint=eastwest;strokeColor=#0F8B8D;fontColor=#143642;" vertex="1" parent="H-Zj2OChRAa0Gneqg0xZ-1">
          <mxGeometry y="120" width="180" height="30" as="geometry" />
        </mxCell>
        <mxCell id="H-Zj2OChRAa0Gneqg0xZ-12" value="" style="shape=partialRectangle;connectable=0;fillColor=none;top=0;left=0;bottom=0;right=0;editable=1;overflow=hidden;strokeColor=#0F8B8D;fontColor=#143642;" vertex="1" parent="H-Zj2OChRAa0Gneqg0xZ-11">
          <mxGeometry width="30" height="30" as="geometry" />
        </mxCell>
        <mxCell id="H-Zj2OChRAa0Gneqg0xZ-13" value="price" style="shape=partialRectangle;connectable=0;fillColor=none;top=0;left=0;bottom=0;right=0;align=left;spacingLeft=6;overflow=hidden;strokeColor=#0F8B8D;fontColor=#143642;" vertex="1" parent="H-Zj2OChRAa0Gneqg0xZ-11">
          <mxGeometry x="30" width="150" height="30" as="geometry" />
        </mxCell>
        <mxCell id="H-Zj2OChRAa0Gneqg0xZ-42" value="" style="shape=partialRectangle;collapsible=0;dropTarget=0;pointerEvents=0;fillColor=none;top=0;left=0;bottom=0;right=0;points=[[0,0.5],[1,0.5]];portConstraint=eastwest;strokeColor=#0F8B8D;fontColor=#143642;" vertex="1" parent="H-Zj2OChRAa0Gneqg0xZ-1">
          <mxGeometry y="150" width="180" height="30" as="geometry" />
        </mxCell>
        <mxCell id="H-Zj2OChRAa0Gneqg0xZ-43" value="" style="shape=partialRectangle;connectable=0;fillColor=none;top=0;left=0;bottom=0;right=0;editable=1;overflow=hidden;strokeColor=#0F8B8D;fontColor=#143642;" vertex="1" parent="H-Zj2OChRAa0Gneqg0xZ-42">
          <mxGeometry width="30" height="30" as="geometry" />
        </mxCell>
        <mxCell id="H-Zj2OChRAa0Gneqg0xZ-44" value="stock" style="shape=partialRectangle;connectable=0;fillColor=none;top=0;left=0;bottom=0;right=0;align=left;spacingLeft=6;overflow=hidden;strokeColor=#0F8B8D;fontColor=#143642;" vertex="1" parent="H-Zj2OChRAa0Gneqg0xZ-42">
          <mxGeometry x="30" width="150" height="30" as="geometry" />
        </mxCell>
        <mxCell id="H-Zj2OChRAa0Gneqg0xZ-61" style="edgeStyle=orthogonalEdgeStyle;curved=0;rounded=1;sketch=0;orthogonalLoop=1;jettySize=auto;html=1;entryX=0.5;entryY=0;entryDx=0;entryDy=0;strokeColor=#A8201A;fillColor=#FAE5C7;fontColor=#143642;labelBackgroundColor=#DAD2D8;" edge="1" parent="1" target="H-Zj2OChRAa0Gneqg0xZ-60">
          <mxGeometry relative="1" as="geometry">
            <mxPoint x="610" y="760" as="sourcePoint" />
          </mxGeometry>
        </mxCell>
        <mxCell id="H-Zj2OChRAa0Gneqg0xZ-14" value="Order" style="shape=table;startSize=30;container=1;collapsible=1;childLayout=tableLayout;fixedRows=1;rowLines=0;fontStyle=1;align=center;resizeLast=1;fillColor=#FAE5C7;strokeColor=#0F8B8D;fontColor=#143642;" vertex="1" parent="1">
          <mxGeometry x="580" y="600" width="180" height="160" as="geometry" />
        </mxCell>
        <mxCell id="H-Zj2OChRAa0Gneqg0xZ-15" value="" style="shape=partialRectangle;collapsible=0;dropTarget=0;pointerEvents=0;fillColor=none;top=0;left=0;bottom=1;right=0;points=[[0,0.5],[1,0.5]];portConstraint=eastwest;strokeColor=#0F8B8D;fontColor=#143642;" vertex="1" parent="H-Zj2OChRAa0Gneqg0xZ-14">
          <mxGeometry y="30" width="180" height="30" as="geometry" />
        </mxCell>
        <mxCell id="H-Zj2OChRAa0Gneqg0xZ-16" value="PK" style="shape=partialRectangle;connectable=0;fillColor=none;top=0;left=0;bottom=0;right=0;fontStyle=1;overflow=hidden;strokeColor=#0F8B8D;fontColor=#143642;" vertex="1" parent="H-Zj2OChRAa0Gneqg0xZ-15">
          <mxGeometry width="30" height="30" as="geometry" />
        </mxCell>
        <mxCell id="H-Zj2OChRAa0Gneqg0xZ-17" value="order_id" style="shape=partialRectangle;connectable=0;fillColor=none;top=0;left=0;bottom=0;right=0;align=left;spacingLeft=6;fontStyle=5;overflow=hidden;strokeColor=#0F8B8D;fontColor=#143642;" vertex="1" parent="H-Zj2OChRAa0Gneqg0xZ-15">
          <mxGeometry x="30" width="150" height="30" as="geometry" />
        </mxCell>
        <mxCell id="H-Zj2OChRAa0Gneqg0xZ-18" value="" style="shape=partialRectangle;collapsible=0;dropTarget=0;pointerEvents=0;fillColor=none;top=0;left=0;bottom=0;right=0;points=[[0,0.5],[1,0.5]];portConstraint=eastwest;strokeColor=#0F8B8D;fontColor=#143642;" vertex="1" parent="H-Zj2OChRAa0Gneqg0xZ-14">
          <mxGeometry y="60" width="180" height="30" as="geometry" />
        </mxCell>
        <mxCell id="H-Zj2OChRAa0Gneqg0xZ-19" value="" style="shape=partialRectangle;connectable=0;fillColor=none;top=0;left=0;bottom=0;right=0;editable=1;overflow=hidden;strokeColor=#0F8B8D;fontColor=#143642;" vertex="1" parent="H-Zj2OChRAa0Gneqg0xZ-18">
          <mxGeometry width="30" height="30" as="geometry" />
        </mxCell>
        <mxCell id="H-Zj2OChRAa0Gneqg0xZ-20" value="order_date" style="shape=partialRectangle;connectable=0;fillColor=none;top=0;left=0;bottom=0;right=0;align=left;spacingLeft=6;overflow=hidden;strokeColor=#0F8B8D;fontColor=#143642;" vertex="1" parent="H-Zj2OChRAa0Gneqg0xZ-18">
          <mxGeometry x="30" width="150" height="30" as="geometry" />
        </mxCell>
        <mxCell id="H-Zj2OChRAa0Gneqg0xZ-21" value="" style="shape=partialRectangle;collapsible=0;dropTarget=0;pointerEvents=0;fillColor=none;top=0;left=0;bottom=0;right=0;points=[[0,0.5],[1,0.5]];portConstraint=eastwest;strokeColor=#0F8B8D;fontColor=#143642;" vertex="1" parent="H-Zj2OChRAa0Gneqg0xZ-14">
          <mxGeometry y="90" width="180" height="30" as="geometry" />
        </mxCell>
        <mxCell id="H-Zj2OChRAa0Gneqg0xZ-22" value="" style="shape=partialRectangle;connectable=0;fillColor=none;top=0;left=0;bottom=0;right=0;editable=1;overflow=hidden;strokeColor=#0F8B8D;fontColor=#143642;" vertex="1" parent="H-Zj2OChRAa0Gneqg0xZ-21">
          <mxGeometry width="30" height="30" as="geometry" />
        </mxCell>
        <mxCell id="H-Zj2OChRAa0Gneqg0xZ-23" value="shipping_rate" style="shape=partialRectangle;connectable=0;fillColor=none;top=0;left=0;bottom=0;right=0;align=left;spacingLeft=6;overflow=hidden;strokeColor=#0F8B8D;fontColor=#143642;" vertex="1" parent="H-Zj2OChRAa0Gneqg0xZ-21">
          <mxGeometry x="30" width="150" height="30" as="geometry" />
        </mxCell>
        <mxCell id="H-Zj2OChRAa0Gneqg0xZ-24" value="" style="shape=partialRectangle;collapsible=0;dropTarget=0;pointerEvents=0;fillColor=none;top=0;left=0;bottom=0;right=0;points=[[0,0.5],[1,0.5]];portConstraint=eastwest;strokeColor=#0F8B8D;fontColor=#143642;" vertex="1" parent="H-Zj2OChRAa0Gneqg0xZ-14">
          <mxGeometry y="120" width="180" height="30" as="geometry" />
        </mxCell>
        <mxCell id="H-Zj2OChRAa0Gneqg0xZ-25" value="" style="shape=partialRectangle;connectable=0;fillColor=none;top=0;left=0;bottom=0;right=0;editable=1;overflow=hidden;strokeColor=#0F8B8D;fontColor=#143642;" vertex="1" parent="H-Zj2OChRAa0Gneqg0xZ-24">
          <mxGeometry width="30" height="30" as="geometry" />
        </mxCell>
        <mxCell id="H-Zj2OChRAa0Gneqg0xZ-26" value="" style="shape=partialRectangle;connectable=0;fillColor=none;top=0;left=0;bottom=0;right=0;align=left;spacingLeft=6;overflow=hidden;strokeColor=#0F8B8D;fontColor=#143642;" vertex="1" parent="H-Zj2OChRAa0Gneqg0xZ-24">
          <mxGeometry x="30" width="150" height="30" as="geometry" />
        </mxCell>
        <mxCell id="H-Zj2OChRAa0Gneqg0xZ-62" style="edgeStyle=orthogonalEdgeStyle;curved=0;rounded=1;sketch=0;orthogonalLoop=1;jettySize=auto;html=1;strokeColor=#A8201A;fillColor=#FAE5C7;fontColor=#143642;entryX=0.5;entryY=1;entryDx=0;entryDy=0;labelBackgroundColor=#DAD2D8;" edge="1" parent="1" source="H-Zj2OChRAa0Gneqg0xZ-27" target="H-Zj2OChRAa0Gneqg0xZ-60">
          <mxGeometry relative="1" as="geometry">
            <mxPoint x="670" y="910" as="targetPoint" />
            <mxPoint x="610" y="960" as="sourcePoint" />
            <Array as="points">
              <mxPoint x="610" y="970" />
              <mxPoint x="610" y="970" />
            </Array>
          </mxGeometry>
        </mxCell>
        <mxCell id="H-Zj2OChRAa0Gneqg0xZ-27" value="Customer" style="shape=table;startSize=30;container=1;collapsible=1;childLayout=tableLayout;fixedRows=1;rowLines=0;fontStyle=1;align=center;resizeLast=1;fillColor=#FAE5C7;strokeColor=#0F8B8D;fontColor=#143642;" vertex="1" parent="1">
          <mxGeometry x="580" y="970" width="180" height="310" as="geometry" />
        </mxCell>
        <mxCell id="H-Zj2OChRAa0Gneqg0xZ-28" value="" style="shape=partialRectangle;collapsible=0;dropTarget=0;pointerEvents=0;fillColor=none;top=0;left=0;bottom=1;right=0;points=[[0,0.5],[1,0.5]];portConstraint=eastwest;strokeColor=#0F8B8D;fontColor=#143642;" vertex="1" parent="H-Zj2OChRAa0Gneqg0xZ-27">
          <mxGeometry y="30" width="180" height="30" as="geometry" />
        </mxCell>
        <mxCell id="H-Zj2OChRAa0Gneqg0xZ-29" value="PK" style="shape=partialRectangle;connectable=0;fillColor=none;top=0;left=0;bottom=0;right=0;fontStyle=1;overflow=hidden;strokeColor=#0F8B8D;fontColor=#143642;" vertex="1" parent="H-Zj2OChRAa0Gneqg0xZ-28">
          <mxGeometry width="30" height="30" as="geometry" />
        </mxCell>
        <mxCell id="H-Zj2OChRAa0Gneqg0xZ-30" value="customer_id" style="shape=partialRectangle;connectable=0;fillColor=none;top=0;left=0;bottom=0;right=0;align=left;spacingLeft=6;fontStyle=5;overflow=hidden;strokeColor=#0F8B8D;fontColor=#143642;" vertex="1" parent="H-Zj2OChRAa0Gneqg0xZ-28">
          <mxGeometry x="30" width="150" height="30" as="geometry" />
        </mxCell>
        <mxCell id="H-Zj2OChRAa0Gneqg0xZ-31" value="" style="shape=partialRectangle;collapsible=0;dropTarget=0;pointerEvents=0;fillColor=none;top=0;left=0;bottom=0;right=0;points=[[0,0.5],[1,0.5]];portConstraint=eastwest;strokeColor=#0F8B8D;fontColor=#143642;" vertex="1" parent="H-Zj2OChRAa0Gneqg0xZ-27">
          <mxGeometry y="60" width="180" height="30" as="geometry" />
        </mxCell>
        <mxCell id="H-Zj2OChRAa0Gneqg0xZ-32" value="" style="shape=partialRectangle;connectable=0;fillColor=none;top=0;left=0;bottom=0;right=0;editable=1;overflow=hidden;strokeColor=#0F8B8D;fontColor=#143642;" vertex="1" parent="H-Zj2OChRAa0Gneqg0xZ-31">
          <mxGeometry width="30" height="30" as="geometry" />
        </mxCell>
        <mxCell id="H-Zj2OChRAa0Gneqg0xZ-33" value="first_name" style="shape=partialRectangle;connectable=0;fillColor=none;top=0;left=0;bottom=0;right=0;align=left;spacingLeft=6;overflow=hidden;strokeColor=#0F8B8D;fontColor=#143642;" vertex="1" parent="H-Zj2OChRAa0Gneqg0xZ-31">
          <mxGeometry x="30" width="150" height="30" as="geometry" />
        </mxCell>
        <mxCell id="H-Zj2OChRAa0Gneqg0xZ-34" value="" style="shape=partialRectangle;collapsible=0;dropTarget=0;pointerEvents=0;fillColor=none;top=0;left=0;bottom=0;right=0;points=[[0,0.5],[1,0.5]];portConstraint=eastwest;strokeColor=#0F8B8D;fontColor=#143642;" vertex="1" parent="H-Zj2OChRAa0Gneqg0xZ-27">
          <mxGeometry y="90" width="180" height="30" as="geometry" />
        </mxCell>
        <mxCell id="H-Zj2OChRAa0Gneqg0xZ-35" value="" style="shape=partialRectangle;connectable=0;fillColor=none;top=0;left=0;bottom=0;right=0;editable=1;overflow=hidden;strokeColor=#0F8B8D;fontColor=#143642;" vertex="1" parent="H-Zj2OChRAa0Gneqg0xZ-34">
          <mxGeometry width="30" height="30" as="geometry" />
        </mxCell>
        <mxCell id="H-Zj2OChRAa0Gneqg0xZ-36" value="last_name" style="shape=partialRectangle;connectable=0;fillColor=none;top=0;left=0;bottom=0;right=0;align=left;spacingLeft=6;overflow=hidden;strokeColor=#0F8B8D;fontColor=#143642;" vertex="1" parent="H-Zj2OChRAa0Gneqg0xZ-34">
          <mxGeometry x="30" width="150" height="30" as="geometry" />
        </mxCell>
        <mxCell id="H-Zj2OChRAa0Gneqg0xZ-37" value="" style="shape=partialRectangle;collapsible=0;dropTarget=0;pointerEvents=0;fillColor=none;top=0;left=0;bottom=0;right=0;points=[[0,0.5],[1,0.5]];portConstraint=eastwest;strokeColor=#0F8B8D;fontColor=#143642;" vertex="1" parent="H-Zj2OChRAa0Gneqg0xZ-27">
          <mxGeometry y="120" width="180" height="30" as="geometry" />
        </mxCell>
        <mxCell id="H-Zj2OChRAa0Gneqg0xZ-38" value="" style="shape=partialRectangle;connectable=0;fillColor=none;top=0;left=0;bottom=0;right=0;editable=1;overflow=hidden;strokeColor=#0F8B8D;fontColor=#143642;" vertex="1" parent="H-Zj2OChRAa0Gneqg0xZ-37">
          <mxGeometry width="30" height="30" as="geometry" />
        </mxCell>
        <mxCell id="H-Zj2OChRAa0Gneqg0xZ-39" value="email" style="shape=partialRectangle;connectable=0;fillColor=none;top=0;left=0;bottom=0;right=0;align=left;spacingLeft=6;overflow=hidden;strokeColor=#0F8B8D;fontColor=#143642;" vertex="1" parent="H-Zj2OChRAa0Gneqg0xZ-37">
          <mxGeometry x="30" width="150" height="30" as="geometry" />
        </mxCell>
        <mxCell id="H-Zj2OChRAa0Gneqg0xZ-45" value="" style="shape=partialRectangle;collapsible=0;dropTarget=0;pointerEvents=0;fillColor=none;top=0;left=0;bottom=0;right=0;points=[[0,0.5],[1,0.5]];portConstraint=eastwest;strokeColor=#0F8B8D;fontColor=#143642;" vertex="1" parent="H-Zj2OChRAa0Gneqg0xZ-27">
          <mxGeometry y="150" width="180" height="30" as="geometry" />
        </mxCell>
        <mxCell id="H-Zj2OChRAa0Gneqg0xZ-46" value="" style="shape=partialRectangle;connectable=0;fillColor=none;top=0;left=0;bottom=0;right=0;editable=1;overflow=hidden;strokeColor=#0F8B8D;fontColor=#143642;" vertex="1" parent="H-Zj2OChRAa0Gneqg0xZ-45">
          <mxGeometry width="30" height="30" as="geometry" />
        </mxCell>
        <mxCell id="H-Zj2OChRAa0Gneqg0xZ-47" value="address_1" style="shape=partialRectangle;connectable=0;fillColor=none;top=0;left=0;bottom=0;right=0;align=left;spacingLeft=6;overflow=hidden;strokeColor=#0F8B8D;fontColor=#143642;" vertex="1" parent="H-Zj2OChRAa0Gneqg0xZ-45">
          <mxGeometry x="30" width="150" height="30" as="geometry" />
        </mxCell>
        <mxCell id="H-Zj2OChRAa0Gneqg0xZ-48" value="" style="shape=partialRectangle;collapsible=0;dropTarget=0;pointerEvents=0;fillColor=none;top=0;left=0;bottom=0;right=0;points=[[0,0.5],[1,0.5]];portConstraint=eastwest;strokeColor=#0F8B8D;fontColor=#143642;" vertex="1" parent="H-Zj2OChRAa0Gneqg0xZ-27">
          <mxGeometry y="180" width="180" height="30" as="geometry" />
        </mxCell>
        <mxCell id="H-Zj2OChRAa0Gneqg0xZ-49" value="" style="shape=partialRectangle;connectable=0;fillColor=none;top=0;left=0;bottom=0;right=0;editable=1;overflow=hidden;strokeColor=#0F8B8D;fontColor=#143642;" vertex="1" parent="H-Zj2OChRAa0Gneqg0xZ-48">
          <mxGeometry width="30" height="30" as="geometry" />
        </mxCell>
        <mxCell id="H-Zj2OChRAa0Gneqg0xZ-50" value="address_2" style="shape=partialRectangle;connectable=0;fillColor=none;top=0;left=0;bottom=0;right=0;align=left;spacingLeft=6;overflow=hidden;strokeColor=#0F8B8D;fontColor=#143642;" vertex="1" parent="H-Zj2OChRAa0Gneqg0xZ-48">
          <mxGeometry x="30" width="150" height="30" as="geometry" />
        </mxCell>
        <mxCell id="H-Zj2OChRAa0Gneqg0xZ-51" value="" style="shape=partialRectangle;collapsible=0;dropTarget=0;pointerEvents=0;fillColor=none;top=0;left=0;bottom=0;right=0;points=[[0,0.5],[1,0.5]];portConstraint=eastwest;strokeColor=#0F8B8D;fontColor=#143642;" vertex="1" parent="H-Zj2OChRAa0Gneqg0xZ-27">
          <mxGeometry y="210" width="180" height="30" as="geometry" />
        </mxCell>
        <mxCell id="H-Zj2OChRAa0Gneqg0xZ-52" value="" style="shape=partialRectangle;connectable=0;fillColor=none;top=0;left=0;bottom=0;right=0;editable=1;overflow=hidden;strokeColor=#0F8B8D;fontColor=#143642;" vertex="1" parent="H-Zj2OChRAa0Gneqg0xZ-51">
          <mxGeometry width="30" height="30" as="geometry" />
        </mxCell>
        <mxCell id="H-Zj2OChRAa0Gneqg0xZ-53" value="city" style="shape=partialRectangle;connectable=0;fillColor=none;top=0;left=0;bottom=0;right=0;align=left;spacingLeft=6;overflow=hidden;strokeColor=#0F8B8D;fontColor=#143642;" vertex="1" parent="H-Zj2OChRAa0Gneqg0xZ-51">
          <mxGeometry x="30" width="150" height="30" as="geometry" />
        </mxCell>
        <mxCell id="H-Zj2OChRAa0Gneqg0xZ-54" value="" style="shape=partialRectangle;collapsible=0;dropTarget=0;pointerEvents=0;fillColor=none;top=0;left=0;bottom=0;right=0;points=[[0,0.5],[1,0.5]];portConstraint=eastwest;strokeColor=#0F8B8D;fontColor=#143642;" vertex="1" parent="H-Zj2OChRAa0Gneqg0xZ-27">
          <mxGeometry y="240" width="180" height="30" as="geometry" />
        </mxCell>
        <mxCell id="H-Zj2OChRAa0Gneqg0xZ-55" value="" style="shape=partialRectangle;connectable=0;fillColor=none;top=0;left=0;bottom=0;right=0;editable=1;overflow=hidden;strokeColor=#0F8B8D;fontColor=#143642;" vertex="1" parent="H-Zj2OChRAa0Gneqg0xZ-54">
          <mxGeometry width="30" height="30" as="geometry" />
        </mxCell>
        <mxCell id="H-Zj2OChRAa0Gneqg0xZ-56" value="province" style="shape=partialRectangle;connectable=0;fillColor=none;top=0;left=0;bottom=0;right=0;align=left;spacingLeft=6;overflow=hidden;strokeColor=#0F8B8D;fontColor=#143642;" vertex="1" parent="H-Zj2OChRAa0Gneqg0xZ-54">
          <mxGeometry x="30" width="150" height="30" as="geometry" />
        </mxCell>
        <mxCell id="H-Zj2OChRAa0Gneqg0xZ-57" value="" style="shape=partialRectangle;collapsible=0;dropTarget=0;pointerEvents=0;fillColor=none;top=0;left=0;bottom=0;right=0;points=[[0,0.5],[1,0.5]];portConstraint=eastwest;strokeColor=#0F8B8D;fontColor=#143642;" vertex="1" parent="H-Zj2OChRAa0Gneqg0xZ-27">
          <mxGeometry y="270" width="180" height="30" as="geometry" />
        </mxCell>
        <mxCell id="H-Zj2OChRAa0Gneqg0xZ-58" value="" style="shape=partialRectangle;connectable=0;fillColor=none;top=0;left=0;bottom=0;right=0;editable=1;overflow=hidden;strokeColor=#0F8B8D;fontColor=#143642;" vertex="1" parent="H-Zj2OChRAa0Gneqg0xZ-57">
          <mxGeometry width="30" height="30" as="geometry" />
        </mxCell>
        <mxCell id="H-Zj2OChRAa0Gneqg0xZ-59" value="country" style="shape=partialRectangle;connectable=0;fillColor=none;top=0;left=0;bottom=0;right=0;align=left;spacingLeft=6;overflow=hidden;strokeColor=#0F8B8D;fontColor=#143642;" vertex="1" parent="H-Zj2OChRAa0Gneqg0xZ-57">
          <mxGeometry x="30" width="150" height="30" as="geometry" />
        </mxCell>
        <mxCell id="H-Zj2OChRAa0Gneqg0xZ-40" value="&lt;font style=&quot;font-size: 36px&quot;&gt;Online Ordering System&lt;/font&gt;" style="text;html=1;strokeColor=none;fillColor=none;align=center;verticalAlign=middle;whiteSpace=wrap;rounded=0;fontColor=#143642;" vertex="1" parent="1">
          <mxGeometry x="213" y="520" width="425" height="20" as="geometry" />
        </mxCell>
        <mxCell id="H-Zj2OChRAa0Gneqg0xZ-60" value="has" style="shape=rhombus;perimeter=rhombusPerimeter;whiteSpace=wrap;html=1;align=center;rounded=0;sketch=0;strokeColor=#0F8B8D;fillColor=#FAE5C7;fontColor=#143642;" vertex="1" parent="1">
          <mxGeometry x="550" y="840" width="120" height="60" as="geometry" />
        </mxCell>
        <mxCell id="H-Zj2OChRAa0Gneqg0xZ-64" style="edgeStyle=orthogonalEdgeStyle;curved=0;rounded=1;sketch=0;orthogonalLoop=1;jettySize=auto;html=1;exitX=1;exitY=0.5;exitDx=0;exitDy=0;entryX=0;entryY=0.5;entryDx=0;entryDy=0;strokeColor=#A8201A;fillColor=#FAE5C7;fontColor=#143642;labelBackgroundColor=#DAD2D8;" edge="1" parent="1" source="H-Zj2OChRAa0Gneqg0xZ-8" target="H-Zj2OChRAa0Gneqg0xZ-66">
          <mxGeometry relative="1" as="geometry">
            <mxPoint x="370" y="705" as="targetPoint" />
          </mxGeometry>
        </mxCell>
        <mxCell id="H-Zj2OChRAa0Gneqg0xZ-65" style="edgeStyle=orthogonalEdgeStyle;curved=0;rounded=1;sketch=0;orthogonalLoop=1;jettySize=auto;html=1;exitX=0;exitY=0.5;exitDx=0;exitDy=0;strokeColor=#A8201A;fillColor=#FAE5C7;fontColor=#143642;entryX=1;entryY=0.5;entryDx=0;entryDy=0;labelBackgroundColor=#DAD2D8;" edge="1" parent="1" source="H-Zj2OChRAa0Gneqg0xZ-21" target="H-Zj2OChRAa0Gneqg0xZ-66">
          <mxGeometry relative="1" as="geometry">
            <mxPoint x="490" y="705" as="targetPoint" />
          </mxGeometry>
        </mxCell>
        <mxCell id="H-Zj2OChRAa0Gneqg0xZ-66" value="has" style="shape=associativeEntity;whiteSpace=wrap;html=1;align=center;rounded=0;sketch=0;strokeColor=#0F8B8D;fillColor=#FAE5C7;fontColor=#143642;" vertex="1" parent="1">
          <mxGeometry x="350" y="675" width="140" height="60" as="geometry" />
        </mxCell>
        <mxCell id="H-Zj2OChRAa0Gneqg0xZ-71" value="" style="fontSize=12;html=1;endArrow=ERoneToMany;startArrow=ERzeroToOne;strokeColor=#A8201A;fillColor=#FAE5C7;exitX=0.75;exitY=0;exitDx=0;exitDy=0;entryX=0.75;entryY=1;entryDx=0;entryDy=0;" edge="1" parent="1" source="H-Zj2OChRAa0Gneqg0xZ-27" target="H-Zj2OChRAa0Gneqg0xZ-14">
          <mxGeometry width="100" height="100" relative="1" as="geometry">
            <mxPoint x="710" y="945" as="sourcePoint" />
            <mxPoint x="700" y="735" as="targetPoint" />
            <Array as="points" />
          </mxGeometry>
        </mxCell>
        <mxCell id="H-Zj2OChRAa0Gneqg0xZ-72" value="" style="edgeStyle=entityRelationEdgeStyle;fontSize=12;html=1;endArrow=ERoneToMany;startArrow=ERzeroToMany;strokeColor=#A8201A;fillColor=#FAE5C7;exitX=0.994;exitY=0.121;exitDx=0;exitDy=0;exitPerimeter=0;" edge="1" parent="1" source="H-Zj2OChRAa0Gneqg0xZ-1">
          <mxGeometry width="100" height="100" relative="1" as="geometry">
            <mxPoint x="290" y="675" as="sourcePoint" />
            <mxPoint x="577" y="622" as="targetPoint" />
          </mxGeometry>
        </mxCell>
      </root>
    </mxGraphModel>
  </diagram>
</mxfile>
